<svg width="24" height="24" viewBox="0 0 24 24" fill="none" xmlns="http://www.w3.org/2000/svg">
<path d="M22 12C22 6.47715 17.5228 2 12 2C6.47715 2 2 6.47715 2 12C2 17.5228 6.47715 22 12 22" stroke="#8E8E8E" stroke-width="1.5" stroke-linejoin="round"/>
<path d="M7.5 17C9.8317 14.5578 14.1432 14.4428 16.5 17M14.4951 9.5C14.4951 10.8807 13.3742 12 11.9915 12C10.6089 12 9.48797 10.8807 9.48797 9.5C9.48797 8.11929 10.6089 7 11.9915 7C13.3742 7 14.4951 8.11929 14.4951 9.5Z" stroke="#8E8E8E" stroke-width="1.5" stroke-linejoin="round"/>
<g clip-path="url(#clip0_51_930)">
<path d="M21.9536 17.4687C22.4671 16.5733 22.7151 15.8421 22.8646 15.101C23.0857 14.0049 22.5797 12.9341 21.7414 12.2509C21.3871 11.9621 20.981 12.0608 20.7715 12.4366L20.2985 13.2852C19.9236 13.9577 19.7362 14.294 19.7734 14.6505C19.8105 15.0071 20.0633 15.2974 20.5689 15.8782L21.9536 17.4687ZM21.9536 17.4687C20.9142 19.2811 19.2831 20.9131 17.4686 21.9537M17.4686 21.9537C16.5732 22.4672 15.8421 22.7152 15.1009 22.8647C14.0048 23.0858 12.934 22.5798 12.2508 21.7415C11.9621 21.3872 12.0607 20.9811 12.4366 20.7716L13.2851 20.2986C13.9577 19.9237 14.2939 19.7363 14.6505 19.7735C15.007 19.8106 15.2974 20.0634 15.8781 20.569L17.4686 21.9537Z" stroke="#8E8E8E" stroke-width="1.5" stroke-linejoin="round"/>
</g>
<defs>
<clipPath id="clip0_51_930">
<rect width="13" height="13" fill="white" transform="matrix(-1 0 0 1 24 11)"/>
</clipPath>
</defs>
</svg>
